<?xml version="1.0" standalone="no"?>
<!DOCTYPE svg PUBLIC "-//W3C//DTD SVG 20010904//EN"
 "http://www.w3.org/TR/2001/REC-SVG-20010904/DTD/svg10.dtd">
<svg version="1.0" xmlns="http://www.w3.org/2000/svg"
 width="1249.000000pt" height="1249.000000pt" viewBox="0 0 1249.000000 1249.000000"
 preserveAspectRatio="xMidYMid meet">
<metadata>
Created by potrace 1.14, written by Peter Selinger 2001-2017
</metadata>
<g transform="translate(0.000000,1249.000000) scale(0.100000,-0.100000)"
fill="#000000" stroke="none">
<path d="M9189 10731 c-115 -26 -198 -71 -263 -143 -31 -33 -53 -65 -50 -69 3
-5 1 -9 -4 -9 -5 0 -23 -23 -41 -52 -54 -86 -74 -241 -47 -362 33 -142 167
-290 325 -358 164 -70 411 -17 541 116 46 48 67 78 126 186 8 14 14 35 14 47
0 12 4 24 9 27 10 6 11 238 1 246 -3 3 -18 35 -34 72 -50 120 -193 248 -326
291 -75 24 -167 27 -251 8z"/>
<path d="M6445 9913 c-170 -15 -343 -40 -480 -70 -68 -15 -349 -105 -430 -138
-114 -46 -376 -178 -445 -224 -30 -21 -82 -55 -114 -77 -32 -21 -75 -50 -95
-63 -146 -98 -495 -432 -602 -576 -16 -22 -45 -60 -64 -85 -19 -25 -45 -64
-57 -87 -12 -24 -25 -43 -29 -43 -4 0 -26 -33 -50 -72 -23 -40 -44 -74 -45
-76 -1 -2 -46 8 -100 22 -330 83 -738 41 -1049 -110 -200 -96 -290 -156 -441
-294 -169 -155 -242 -247 -344 -435 -23 -44 -47 -86 -53 -92 -5 -7 -6 -13 -1
-13 5 0 4 -4 -1 -8 -16 -11 -86 -192 -88 -227 -1 -16 -5 -32 -8 -35 -11 -9
-27 -90 -25 -125 1 -19 -2 -35 -5 -35 -17 0 -31 -184 -27 -341 l5 -168 -51
-12 c-80 -19 -256 -88 -366 -144 -78 -39 -266 -165 -352 -234 -70 -57 -286
-275 -357 -361 -34 -40 -91 -126 -91 -136 0 -3 -5 -10 -11 -17 -20 -23 -99
-152 -105 -172 -4 -11 -15 -32 -26 -47 -11 -16 -16 -28 -11 -28 4 0 3 -4 -3
-8 -14 -10 -85 -202 -78 -213 3 -5 1 -9 -5 -9 -13 0 -45 -106 -37 -119 4 -5 2
-12 -3 -15 -5 -3 -12 -20 -15 -38 -7 -35 -7 -39 -32 -138 -8 -36 -14 -77 -12
-92 3 -15 0 -29 -6 -31 -14 -5 -15 -472 -2 -502 5 -11 8 -31 7 -44 -3 -21 11
-89 26 -131 3 -8 7 -27 9 -41 14 -105 100 -369 123 -377 6 -2 8 -9 5 -15 -4
-13 69 -166 107 -222 11 -16 38 -57 59 -90 88 -135 120 -174 274 -329 168
-168 273 -253 391 -317 22 -12 49 -30 60 -40 26 -23 204 -107 326 -153 137
-52 403 -113 544 -126 148 -12 6957 -13 7330 0 138 4 277 13 310 20 319 61
500 129 760 285 61 37 133 85 160 108 28 23 55 45 60 49 50 37 161 142 210
197 109 125 215 263 215 280 0 4 14 25 30 46 34 43 108 189 141 280 12 33 25
65 29 70 4 6 18 43 29 83 12 39 26 72 32 72 6 0 8 4 5 8 -3 5 2 35 11 68 8 32
16 73 18 89 1 17 10 82 19 145 20 134 23 383 6 485 -20 127 -29 199 -24 206 2
4 1 9 -4 11 -4 1 -20 46 -35 98 -31 107 -32 109 -40 130 -7 19 -26 82 -29 95
-1 6 -6 15 -10 20 -20 24 -116 223 -111 229 4 3 1 6 -5 6 -6 0 -32 36 -58 79
-26 44 -71 108 -100 143 -30 35 -77 92 -106 127 -29 35 -62 71 -72 80 -173
149 -205 174 -281 224 -38 26 -86 58 -105 73 -68 50 -297 150 -488 214 -97 32
-130 38 -344 66 l-127 17 5 26 c24 126 32 493 14 665 -6 54 -8 101 -5 104 3 3
1 10 -4 16 -5 6 -12 44 -15 84 -3 40 -8 77 -11 82 -3 5 -8 28 -10 52 -3 24 -7
52 -9 63 -17 69 -43 155 -78 260 -23 66 -42 127 -43 135 -7 48 -194 430 -253
519 -21 31 -56 83 -78 115 -21 32 -50 75 -63 95 -37 55 -63 87 -202 241 -202
224 -335 343 -539 480 -21 14 -57 38 -81 54 -78 53 -283 168 -323 182 -22 8
-44 18 -50 23 -18 15 -242 101 -366 141 -136 44 -257 74 -360 90 -41 7 -95 16
-120 21 -119 24 -489 37 -655 22z"/>
<path d="M11005 9234 c-187 -28 -368 -99 -501 -197 -80 -59 -191 -163 -220
-207 -13 -19 -37 -53 -53 -75 -41 -54 -82 -131 -74 -139 4 -3 2 -6 -4 -6 -9 0
-35 -49 -38 -70 -1 -3 -9 -22 -18 -44 -9 -21 -14 -42 -11 -47 3 -5 1 -9 -4 -9
-9 0 -24 -64 -39 -160 -11 -72 -8 -258 4 -341 18 -114 101 -339 125 -339 5 0
7 -4 4 -9 -3 -5 7 -25 22 -44 15 -20 38 -53 52 -74 34 -51 174 -190 242 -241
101 -74 270 -151 418 -188 116 -29 363 -27 490 5 109 27 330 130 400 187 84
67 179 165 230 235 50 69 150 259 150 286 0 7 5 13 10 13 6 0 9 3 8 8 -3 15
15 82 23 88 5 3 7 9 4 13 -2 5 1 23 7 42 17 54 19 337 2 409 -8 34 -12 65 -9
70 3 5 1 10 -5 12 -6 2 -11 18 -13 36 -1 17 -5 32 -9 32 -3 0 -12 17 -19 38
-53 164 -192 352 -362 489 -90 72 -303 175 -422 203 -87 21 -316 35 -390 24z"/>
</g>
</svg>
